<svg width="1200" height="800" viewBox="0 0 1200 800" fill="none" xmlns="http://www.w3.org/2000/svg">
  <rect width="1200" height="800" fill="#F2EAE1"/>
  <rect y="500" width="1200" height="300" fill="#9D7358"/>
  <rect y="528" width="1200" height="8" fill="#8A6248"/>
  <rect y="628" width="1200" height="8" fill="#8A6248"/>
  <rect y="728" width="1200" height="8" fill="#8A6248"/>

  <rect x="76" y="126" width="264" height="194" rx="16" fill="#2B313A"/>
  <rect x="136" y="332" width="145" height="16" rx="8" fill="#584A42"/>
  <rect x="112" y="348" width="192" height="94" rx="18" fill="#7A6457"/>

  <rect x="792" y="74" width="242" height="312" rx="10" fill="#F6FBFF"/>
  <rect x="792" y="74" width="242" height="10" fill="#D9DEE5"/>
  <rect x="792" y="376" width="242" height="10" fill="#D9DEE5"/>
  <rect x="792" y="74" width="10" height="312" fill="#D9DEE5"/>
  <rect x="1024" y="74" width="10" height="312" fill="#D9DEE5"/>
  <rect x="908" y="74" width="10" height="312" fill="#D9DEE5"/>
  <rect x="792" y="226" width="242" height="10" fill="#D9DEE5"/>

  <rect x="429" y="490" width="341" height="103" rx="22" fill="#B77C66"/>
  <rect x="372" y="575" width="456" height="173" rx="26" fill="#A2624F"/>
  <rect x="405" y="596" width="101" height="115" rx="18" fill="#D9AD9B"/>
  <rect x="694" y="596" width="101" height="115" rx="18" fill="#D9AD9B"/>

  <rect x="559" y="122" width="12" height="298" rx="6" fill="#463C38"/>
  <path d="M505 144C505 130.745 515.745 120 529 120H601C614.255 120 625 130.745 625 144V158H505V144Z" fill="#F4D9AA"/>
  <ellipse cx="565" cy="176" rx="46" ry="18" fill="#E7CC9E"/>

  <rect x="901" y="545" width="102" height="145" rx="18" fill="#4F8550"/>
  <rect x="948" y="670" width="10" height="92" rx="5" fill="#845D41"/>

  <rect y="470" width="1200" height="12" fill="#D3C3B4"/>
</svg>
